<svg width="17" height="16" viewBox="0 0 17 16" fill="none" xmlns="http://www.w3.org/2000/svg">
<path fill-rule="evenodd" clip-rule="evenodd" d="M11.6339 0.653575C11.3735 0.913925 11.3735 1.33603 11.6339 1.59638L14.374 4.33652H6.36807C3.27386 4.33652 0.765512 6.84487 0.765512 9.93908C0.765512 13.0333 3.27387 15.5416 6.36808 15.5416H9.06038C9.42857 15.5416 9.72705 15.2432 9.72705 14.875C9.72705 14.5068 9.42857 14.2083 9.06038 14.2083H6.36808C4.01025 14.2083 2.09884 12.2969 2.09884 9.93908C2.09884 7.58125 4.01024 5.66985 6.36807 5.66985H14.374L11.6339 8.40999C11.3735 8.67033 11.3735 9.09245 11.6339 9.35279C11.8942 9.61314 12.3163 9.61314 12.5767 9.35279L16.9263 5.00318L12.5767 0.653575C12.3163 0.393226 11.8942 0.393226 11.6339 0.653575Z" fill="#CAD4DD"/>
</svg>
