<svg width="17" height="16" viewBox="0 0 17 16" fill="none" xmlns="http://www.w3.org/2000/svg">
<path fill-rule="evenodd" clip-rule="evenodd" d="M6.05804 0.653575C6.31839 0.913925 6.31839 1.33603 6.05804 1.59638L3.31791 4.33652H11.3238C14.418 4.33652 16.9264 6.84487 16.9264 9.93908C16.9264 13.0333 14.418 15.5416 11.3238 15.5416H8.63151C8.26332 15.5416 7.96484 15.2432 7.96484 14.875C7.96484 14.5068 8.26332 14.2083 8.63151 14.2083H11.3238C13.6816 14.2083 15.5931 12.2969 15.5931 9.93908C15.5931 7.58125 13.6817 5.66985 11.3238 5.66985H3.31791L6.05804 8.40999C6.31839 8.67033 6.31839 9.09245 6.05804 9.35279C5.79769 9.61314 5.37558 9.61314 5.11524 9.35279L0.765625 5.00318L5.11524 0.653575C5.37558 0.393226 5.79769 0.393226 6.05804 0.653575Z" fill="#CAD4DD"/>
</svg>
